# xmcd
#
# Track frame offsets: 
#        150
#        5329
#        20415
#        34700
#        51513
#        65767
#        84420
#        101984
#        113174
#        128635
#        141937
#        156132
#        171900
#        186665
#        205491
#
# Disc length: 2994 seconds
#
# Revision: 1
# Processed by: cddbd v1.5.2PL0 Copyright (c) Steve Scherf et al.
# Submitted via: ExactAudioCopy v0.90b4
#
DISCID=da0bb00f
DTITLE=Aaron Watson - The Road and The Rodeo
DYEAR=2010
DGENRE=Country
TTITLE0=The Road and The Rodeo
TTITLE1=The Road
TTITLE2=Walls
TTITLE3=Best For Last
TTITLE4=Fast Cars Slow Kisses
TTITLE5=Bless Her Crazy Heart
TTITLE6=Zero To Sixty
TTITLE7=Sweetheart Of The Rodeo
TTITLE8=Conflict
TTITLE9=Houston
TTITLE10=Hollywood
TTITLE11=High Price Of Fame
TTITLE12=The Things You'll Do
TTITLE13=Drivin' All Night Long
TTITLE14=After The Rodeo
EXTD=
EXTT0=
EXTT1=
EXTT2=
EXTT3=
EXTT4=
EXTT5=
EXTT6=
EXTT7=
EXTT8=
EXTT9=
EXTT10=
EXTT11=
EXTT12=
EXTT13=
EXTT14=
PLAYORDER=
